<?xml version="1.0" standalone="no"?>
<!DOCTYPE svg PUBLIC "-//W3C//DTD SVG 20010904//EN"
 "http://www.w3.org/TR/2001/REC-SVG-20010904/DTD/svg10.dtd">
<svg version="1.0" xmlns="http://www.w3.org/2000/svg"
 width="151.000000pt" height="185.000000pt" viewBox="0 0 151.000000 185.000000"
 preserveAspectRatio="xMidYMid meet">

<g transform="translate(0.000000,185.000000) scale(0.100000,-0.100000)"
fill="#000000" stroke="none">
<path d="M645 1481 c-133 -22 -235 -70 -295 -138 -61 -69 -70 -110 -70 -310
l0 -173 468 2 467 3 0 170 c0 143 -3 178 -19 219 -38 99 -137 175 -272 210
-75 19 -212 27 -279 17z"/>
<path d="M80 803 c-26 -10 -50 -35 -50 -54 0 -10 12 -27 26 -38 26 -21 34 -21
689 -21 655 0 663 0 689 21 31 25 33 49 5 75 -20 18 -48 19 -683 21 -363 1
-668 -1 -676 -4z"/>
<path d="M267 623 c-4 -3 -7 -82 -7 -174 l0 -168 133 -3 132 -3 3 -27 3 -28
109 0 109 0 3 28 3 27 248 3 247 2 0 169 c0 126 -3 170 -12 174 -20 7 -964 8
-971 0z m261 -170 l3 -113 -26 0 c-25 0 -25 1 -25 80 l0 80 -30 0 -30 0 0 -80
0 -80 -50 0 -50 0 0 108 c0 60 3 112 7 116 4 4 50 5 103 4 l95 -3 3 -112z
m270 0 l3 -113 -50 0 c-49 0 -50 -1 -53 -32 -3 -32 -4 -33 -55 -36 l-53 -3 0
144 c0 79 3 147 7 151 4 4 50 5 103 4 l95 -3 3 -112z m400 0 l3 -113 -26 0
c-25 0 -25 1 -25 80 l0 80 -30 0 -30 0 0 -80 0 -80 -30 0 -30 0 0 80 0 80 -30
0 -30 0 0 -80 0 -80 -55 0 -55 0 0 108 c0 60 3 112 7 116 4 3 79 5 167 4 l161
-3 3 -112z"/>
<path d="M700 450 c0 -50 1 -51 28 -48 25 3 27 6 27 48 0 42 -2 45 -27 48 -27
3 -28 2 -28 -48z"/>
</g>
</svg>
